<svg width="25" height="23" viewBox="0 0 25 23" fill="none" xmlns="http://www.w3.org/2000/svg">
<path d="M22.7469 1.67953C23.6871 2.58084 24.2648 3.82013 24.4313 5.09698C24.2257 9.25613 24.7055 13.65 24.4313 17.781C24.255 20.4473 21.8558 22.7475 19.0746 22.9165C14.7658 23.1794 10.1828 22.7194 5.84459 22.9165C3.10261 22.663 0.771915 20.4473 0.605438 17.7904C0.33124 13.6594 0.811087 9.26551 0.605438 5.10637C0.889429 2.46817 3.09281 0.355742 5.84459 0.0834727C10.1828 0.280633 14.7658 -0.179408 19.0746 0.0834727C20.3869 0.158581 21.8166 0.806394 22.7469 1.69831V1.67953ZM21.4347 2.9376C20.759 2.28979 19.7405 1.88608 18.7906 1.82036C14.7756 1.5387 10.408 2.0363 6.36361 1.82036C4.74779 1.91425 3.47473 2.70289 2.79903 4.11118C2.66193 4.39284 2.564 4.62755 2.564 4.87165C2.564 4.97493 2.44649 4.94676 2.44649 4.97493C2.44649 5.06881 2.53463 5.1627 2.49545 5.30353C2.46608 5.42558 2.4367 5.20964 2.4367 5.58519V17.4993C2.61297 19.5836 4.17982 21.0294 6.35382 21.1515C10.408 20.9355 14.7658 21.4331 18.7809 21.1515C20.9451 21.0013 22.4629 19.4521 22.5903 17.396C22.8351 13.5092 22.3944 9.38757 22.5903 5.48191C22.4923 4.55244 22.1202 3.61358 21.4249 2.94699L21.4347 2.9376Z" fill="#FAFAFA"/>
<path d="M13.4341 10.6078H17.0672C17.0672 10.6078 17.312 10.7393 17.3512 10.7768C17.8408 11.143 17.8604 11.8377 17.3512 12.2039C17.312 12.2321 17.077 12.3729 17.0672 12.3729H13.4341V15.856C13.4341 15.856 13.297 16.0908 13.2578 16.1283C12.8759 16.6165 12.1512 16.5977 11.7693 16.1283C11.7399 16.0908 11.593 15.8654 11.593 15.856V12.3729H7.95992C7.95992 12.3729 7.7151 12.2414 7.67592 12.2039C7.1667 11.8377 7.17649 11.1336 7.67592 10.7768C7.7151 10.7487 7.95013 10.6078 7.95992 10.6078H11.593V7.12466C11.593 7.12466 11.7301 6.88994 11.7693 6.85239C12.1512 6.36418 12.8857 6.37357 13.2578 6.85239C13.2872 6.88994 13.4341 7.11527 13.4341 7.12466V10.6078Z" fill="#FAFAFA"/>
</svg>
