<svg width="32" height="32" viewBox="0 0 32 32" fill="none" xmlns="http://www.w3.org/2000/svg">
<g clip-path="url(#clip0_421_865)">
<path d="M16 32C24.8366 32 32 24.8366 32 16C32 7.16344 24.8366 0 16 0C7.16344 0 0 7.16344 0 16C0 24.8366 7.16344 32 16 32Z" fill="#1C1514"/>
<path d="M15.4697 19.5303C15.7626 19.8232 16.2374 19.8232 16.5303 19.5303L21.3033 14.7574C21.5962 14.4645 21.5962 13.9896 21.3033 13.6967C21.0104 13.4038 20.5355 13.4038 20.2426 13.6967L16 17.9393L11.7574 13.6967C11.4645 13.4038 10.9896 13.4038 10.6967 13.6967C10.4038 13.9896 10.4038 14.4645 10.6967 14.7574L15.4697 19.5303ZM15.25 7V19H16.75V7H15.25Z" fill="#FAFAFA"/>
<path d="M21.25 23.75H10.75" stroke="#FAFAFA" stroke-width="1.5" stroke-linecap="round" stroke-linejoin="round"/>
</g>
<defs>
<clipPath id="clip0_421_865">
<rect width="32" height="32" fill="white"/>
</clipPath>
</defs>
</svg>
