<svg width="25" height="24" viewBox="0 0 25 24" fill="none" xmlns="http://www.w3.org/2000/svg">
<path d="M0.688605 0.198984C0.752625 0.13497 0.832649 0.102964 0.912674 0.0709568C8.51506 -0.0730736 16.1415 0.054952 23.7598 0.00694181C24.4481 0.0629537 24.6561 0.343015 24.4321 1.04716L15.4452 10.4411L15.4212 18.5469L15.3732 18.8269L10.5957 23.876C10.2756 24.164 9.71545 23.916 9.68344 23.4839V10.4812L0.648602 1.02316C0.456542 0.783106 0.480548 0.415029 0.696615 0.198984H0.688605ZM22.5515 1.24721H2.54519C5.24204 4.16782 8.07493 6.96841 10.7558 9.91304C10.7798 9.96105 10.8598 10.1691 10.8598 10.1931V21.8356L14.2289 18.3148V10.2491L14.3569 9.86502L22.5515 1.24721Z" fill="#FAFAFA"/>
</svg>
