<?xml version="1.0" encoding="UTF-8"?>
<svg id="Calque_14" data-name="Calque 14" xmlns="http://www.w3.org/2000/svg" xmlns:xlink="http://www.w3.org/1999/xlink" viewBox="0 0 400 400">
  <defs>
    <style>
      .cls-1 {
        fill: #fdddc1;
      }

      .cls-2 {
        fill: url(#Dégradé_sans_nom_27-2);
      }

      .cls-2, .cls-3 {
        opacity: .65;
      }

      .cls-4 {
        fill: #f5a48e;
      }

      .cls-5 {
        fill: #2a140c;
      }

      .cls-6 {
        fill: #8a4b97;
      }

      .cls-7 {
        stroke: #1d1d1b;
        stroke-width: 2px;
      }

      .cls-7, .cls-8, .cls-9 {
        fill: none;
        stroke-linecap: round;
        stroke-miterlimit: 10;
      }

      .cls-10 {
        fill: #804192;
      }

      .cls-11 {
        fill: #f5cfae;
      }

      .cls-3 {
        fill: url(#Dégradé_sans_nom_27);
      }

      .cls-8 {
        stroke: #f7bd8d;
      }

      .cls-8, .cls-9 {
        stroke-width: 4px;
      }

      .cls-9 {
        stroke: #432918;
      }

      .cls-12 {
        fill: #ef8d77;
      }

      .cls-13 {
        fill: #432918;
      }
    </style>
    <radialGradient id="Dégradé_sans_nom_27" data-name="Dégradé sans nom 27" cx="154.75" cy="216.46" fx="154.75" fy="216.46" r="15.49" gradientTransform="translate(417.91 -57.23) rotate(83.25) scale(1.51 1.33) skewX(1.82)" gradientUnits="userSpaceOnUse">
      <stop offset="0" stop-color="#f4a58a"/>
      <stop offset=".1" stop-color="#f4a68b" stop-opacity=".98"/>
      <stop offset=".23" stop-color="#f4a98e" stop-opacity=".92"/>
      <stop offset=".37" stop-color="#f5af94" stop-opacity=".81"/>
      <stop offset=".52" stop-color="#f6b79c" stop-opacity=".67"/>
      <stop offset=".68" stop-color="#f8c2a6" stop-opacity=".48"/>
      <stop offset=".84" stop-color="#faceb2" stop-opacity=".26"/>
      <stop offset="1" stop-color="#fdddc1" stop-opacity="0"/>
    </radialGradient>
    <radialGradient id="Dégradé_sans_nom_27-2" data-name="Dégradé sans nom 27" cx="154.75" cy="216.46" fx="154.75" fy="216.46" r="15.49" gradientTransform="translate(514.89 -37.17) rotate(-173.25) scale(1.51 -1.33) skewX(1.82)" xlink:href="#Dégradé_sans_nom_27"/>
  </defs>
  <path class="cls-5" d="M219.27,271.22h0c-3.58,10.22-3.74,22.02,6.74,31.94h0s0,0,0,0c-.41-.5-13.15-17.3,3.28-43.31l4.26-6.64c-1.93,6.89-4.98,23.85.71,36.94,10.31,23.74,1.58,32.94,1.58,32.94,0,0,39.46,14.04,32.37-36.26,0,0,9.86,29.62-3.15,41.36,0,0,32.64,6.13,23.81-57.7,0,0-.73-39.58,4.42-79.15,5.15-39.57-18.14-129.11-75.61-122.47,0,0-50.5-20.43-87.64,35.15,0,0-28.23,36.51-21.6,98.04,6.62,61.42.48,73.74-7.56,81.92,0,0-.03.02-.04.03h0s0,0,0,0c.58-.45,18.89-15.27,18.64-55.19,0,0,.79,24.31-5.13,41.92-5.91,17.62-6.89,61.03,24.53,58.73,0,0-14.88-23.73-2.42-43.13,0-.01,0-.02,0-.02v.02c-.4,1.12-15.41,44.83,30.15,38.02,0,0-11.86-7.05-6.56-26.82h0c.74-2.8,3.89-6.15,5.4-9.48,0,0,6.87-12.6,3.22-28.9"/>
  <g>
    <path class="cls-1" d="M343.57,354.85s-4.77-19.36-34.94-33.75c-26.94-12.85-56.91-20.35-56.91-20.35,0,0-17.25-6.42-17.25-22.39,0-4.9-.31-25.49-.31-31.26,0-11.6-34.15-2.66-34.15-2.66,0,0-34.15-8.94-34.15,2.66,0,5.77-.31,26.36-.31,31.26,0,15.97-17.25,22.39-17.25,22.39,0,0-29.97,7.5-56.91,20.35-30.17,14.39-34.94,33.75-34.94,33.75l-12.97,45.15h313.06l-12.97-45.15Z"/>
    <rect class="cls-11" x="165.81" y="205.78" width="68.38" height="100.18" rx="34.1" ry="34.1"/>
    <path class="cls-1" d="M227.16,207.52l-17.05-10.82c-6.17-3.92-14.05-3.92-20.22,0l-17.05,10.82c-5.45,3.46-8.75,9.47-8.75,15.92v24.86c0,6.46,3.3,12.46,8.75,15.92l17.05,10.82c6.17,3.92,14.05,3.92,20.22,0l17.05-10.82c5.45-3.46,8.75-9.47,8.75-15.92v-24.86c0-6.46-3.3-12.46-8.75-15.92Z"/>
    <ellipse class="cls-1" cx="200" cy="188.94" rx="64.61" ry="83.29"/>
    <ellipse class="cls-1" cx="200" cy="150" rx="71.05" ry="78.82"/>
    <ellipse class="cls-1" cx="135.95" cy="203.93" rx="21.76" ry="27.78" transform="translate(-65.14 63.81) rotate(-21.44)"/>
    <path class="cls-11" d="M119.17,195.1c1.85-6.83,5.79-10.53,11.46-11.46,2.97-.48,5.01,4.39,6.31,9.64,1.19,4.78,1.77,9.87,1.89,11.46.25,3.34-4.15,5.72-4.15,7.72s6.21,3.31,6.34,6.1c.12,2.78-3.82,9.06-10.92,3.39-7.1-5.67-9.74-10.53-10.92-14.7s-1.85-5.32,0-12.15Z"/>
    <ellipse class="cls-1" cx="264.05" cy="203.93" rx="27.78" ry="21.76" transform="translate(-22.29 375.16) rotate(-68.56)"/>
    <path class="cls-11" d="M280.83,195.1c-1.85-6.83-5.79-10.53-11.46-11.46-2.97-.48-5.01,4.39-6.31,9.64-1.19,4.78-1.77,9.87-1.89,11.46-.25,3.34,4.15,5.72,4.15,7.72,0,1.99-6.21,3.31-6.34,6.1-.12,2.78,3.82,9.06,10.92,3.39,7.1-5.67,9.74-10.53,10.92-14.7s1.85-5.32,0-12.15Z"/>
  </g>
  <g>
    <g>
      <g>
        <line class="cls-8" x1="200" y1="226.21" x2="193.55" y2="223.77"/>
        <line class="cls-8" x1="206.45" y1="223.77" x2="200" y2="226.21"/>
      </g>
      <path class="cls-9" d="M241.87,172.14s-13.98-1.68-28.58,3.11"/>
      <path class="cls-9" d="M158.13,172.14s13.98-1.68,28.58,3.11"/>
    </g>
    <path class="cls-4" d="M200.2,251.06c10.67-.19,17.7-8.58,17.7-8.58,0,0-4.39-.55-12.74-1.94,0,0-2.06,1.22-5.16,1.28-3.1-.06-5.16-1.28-5.16-1.28-8.36,1.39-12.74,1.94-12.74,1.94,0,0,7.04,8.39,17.7,8.58h.4Z"/>
    <path class="cls-7" d="M228.03,186.25s4.47-.08,6-3.08"/>
    <path class="cls-7" d="M229.19,188.59s4.37.95,6.55-1.62"/>
    <path class="cls-7" d="M171.97,186.25s-4.47-.08-6-3.08"/>
    <path class="cls-7" d="M170.81,188.59s-4.37.95-6.55-1.62"/>
    <ellipse class="cls-13" cx="173.96" cy="191.95" rx="6.05" ry="8.1"/>
    <ellipse class="cls-13" cx="226.04" cy="191.95" rx="6.05" ry="8.1"/>
    <g>
      <ellipse class="cls-3" cx="161.54" cy="219.2" rx="15.93" ry="27.72" transform="translate(-77.38 349.83) rotate(-82.28)"/>
      <ellipse class="cls-2" cx="238.46" cy="219.2" rx="27.72" ry="15.93" transform="translate(-27.29 34.02) rotate(-7.72)"/>
    </g>
    <path class="cls-12" d="M182.1,242.48c5.69,2.14,11.87,2.63,17.9,2.67,4.54.01,9.11-.36,13.55-1.36,1.48-.33,2.95-.74,4.36-1.31-9.73,4.49-26.08,4.5-35.81,0h0Z"/>
  </g>
  <g id="salut">
    <path class="cls-6" d="M343.57,354.85s-4.77-19.36-34.94-33.74c-22.97-10.95-48.14-18.02-55.05-19.87-11.25,19.67-24.44,46.14-53.57,49.47-29.13-3.33-42.32-29.8-53.57-49.47-6.92,1.85-32.08,8.92-55.05,19.87-30.17,14.38-34.94,33.74-34.94,33.74l-12.97,45.15h313.06l-12.97-45.15Z"/>
    <path class="cls-10" d="M266.97,301.61c-1.11-.6-6.7-2.59-9.21-3.45-2.63-.89-2.22.22-4.19,3.08-33.93,49.38-53.57,49.47-53.57,49.47,0,0-19.64-.09-53.57-49.47-1.97-2.87-1.56-3.97-4.19-3.08-2.51.85-8.11,2.85-9.21,3.45-1.95,1.05-.61,3.72-.61,3.72,0,0,29.81,52.99,67.57,58.31,37.77-5.32,67.57-58.31,67.57-58.31,0,0,1.34-2.67-.61-3.72Z"/>
  </g>
  <path class="cls-5" d="M142.77,190.83c-9.31,35.38,4.02,60.23,4.02,60.23,0,0-31.15-12.82-25.57-73.29,0,0-3.36-42.3-2.85-47.91s22.72-40.34,33.19-47.74,43.4-21.45,73.28-8.68c29.87,12.77,40.86,23.08,46.22,32.22,5.36,9.14,19.01,29.82,17.93,48.97-1.08,19.15-15.16,21.29-15.16,21.29,6.98,46.01-30.85,72.33-30.85,72.33,12.68-15.65,16.02-44.3,16.02-44.3l-1-14.63c-3.63-7.12-6.28-12.14-14.47-17.19-25.16-15.53-24.08-37.28-24.08-37.28,0,0-.34-5.78.93-9.48l-.93,9.48s-32.72-9.87-45.46,16.43c-14.91,30.78-7.3,35.32-47.81,45.87"/>
</svg>