<svg width="24" height="24" viewBox="0 0 24 24" fill="none" xmlns="http://www.w3.org/2000/svg">
<path fill-rule="evenodd" clip-rule="evenodd" d="M19 9C19 10.3186 18.6354 11.552 18.0015 12.605L12 23L5.99846 12.605C5.36459 11.552 5 10.3186 5 9C5 5.13401 8.13401 2 12 2C15.866 2 19 5.13401 19 9ZM12 14.4444C15.0069 14.4444 17.4444 12.0069 17.4444 9C17.4444 5.99312 15.0069 3.55556 12 3.55556C8.99312 3.55556 6.55556 5.99312 6.55556 9C6.55556 12.0069 8.99312 14.4444 12 14.4444Z" fill="#FAFAFA"/>
<path d="M12.5556 8.77778C12.5556 9.20733 12.2073 9.55556 11.7778 9.55556C11.3482 9.55556 11 9.20733 11 8.77778C11 8.34823 11.3482 8 11.7778 8C12.2073 8 12.5556 8.34823 12.5556 8.77778Z" fill="#FAFAFA"/>
</svg>
