<svg width="23" height="23" viewBox="0 0 23 23" fill="none" xmlns="http://www.w3.org/2000/svg">
<path d="M18.5242 19.8341C15.5942 22.2941 11.8142 23.1441 8.09419 22.0641C6.94419 21.7341 6.2042 21.0741 4.9342 21.3641C3.9842 21.5841 1.9242 22.5941 1.1042 22.5041C0.344202 22.4241 -0.0758051 21.6941 0.0341949 20.9641C0.224195 19.7541 1.2942 18.0841 1.2542 16.8541C1.2342 16.1141 0.684203 15.1841 0.464203 14.4341C-2.1958 5.2741 7.06421 -2.8659 15.7942 0.974099C23.3842 4.3141 24.9042 14.4741 18.5242 19.8341ZM7.48419 11.2741C7.48419 10.5941 6.9342 10.0441 6.2542 10.0441C5.5742 10.0441 5.0242 10.5941 5.0242 11.2741C5.0242 11.9541 5.5742 12.5041 6.2542 12.5041C6.9342 12.5041 7.48419 11.9541 7.48419 11.2741ZM12.4842 11.2741C12.4842 10.5941 11.9342 10.0441 11.2542 10.0441C10.5742 10.0441 10.0242 10.5941 10.0242 11.2741C10.0242 11.9541 10.5742 12.5041 11.2542 12.5041C11.9342 12.5041 12.4842 11.9541 12.4842 11.2741ZM17.4742 11.2741C17.4742 10.5941 16.9242 10.0441 16.2442 10.0441C15.5642 10.0441 15.0142 10.5941 15.0142 11.2741C15.0142 11.9541 15.5642 12.5041 16.2442 12.5041C16.9242 12.5041 17.4742 11.9541 17.4742 11.2741Z" fill="white"/>
</svg>
