<svg width="21" height="26" viewBox="0 0 21 26" fill="none" xmlns="http://www.w3.org/2000/svg">
<path d="M18.8663 0C20.0267 0.26 20.8877 1.08333 21 2.20133V24.2493C20.8783 25.2113 20.139 25.7487 19.1939 26H18.9225C18.857 25.9307 18.7727 25.9307 18.7072 26H18.492L17.734 25.6187L11.2487 19.6647C10.8182 19.3787 10.2005 19.3787 9.77005 19.6647C7.6738 21.4153 5.78342 23.6167 3.66845 25.3153C3.22861 25.6707 2.83556 25.8873 2.24599 26H1.75C1.56284 25.8527 1.29144 25.844 1.0762 25.74C0.495989 25.4627 0.065508 24.8647 0 24.2493V2.20133C0.0561497 1.69 0.215241 1.25666 0.570856 0.857998C0.842247 0.563331 1.39439 0.173335 1.75936 0.0693349C1.83423 0.0433349 2.04011 0.121333 2.13369 0H18.8757H18.8663Z" fill="white"/>
</svg>
