<svg width="20" height="25" viewBox="0 0 20 25" fill="none" xmlns="http://www.w3.org/2000/svg">
<path d="M11.0891 0.0246512C16.4138 0.591886 20.7592 6.26423 19.1955 11.6363C18.6935 13.3713 17.6154 15.2399 16.6443 16.7581C14.7432 19.711 12.4223 22.4388 10.0521 24.9997C9.98629 25.008 9.86283 24.8579 9.81345 24.8078C6.75193 21.5212 2.11853 15.9656 0.859354 11.6363C-0.729015 6.16413 3.45999 1.02565 8.6942 0.11641C8.7765 0.0997268 8.85879 0.0913846 8.9164 0.0246512C9.60771 0.0747013 10.406 -0.050424 11.0809 0.0246512H11.0891ZM13.9366 9.63427C13.9366 7.44875 12.1837 5.67197 10.0274 5.67197C7.87121 5.67197 6.11824 7.44875 6.11824 9.63427C6.11824 11.8198 7.87121 13.5966 10.0274 13.5966C12.1837 13.5966 13.9366 11.8198 13.9366 9.63427Z" fill="#8a2be2"/>
</svg>
