<svg width="30" height="25" viewBox="0 0 30 25" fill="none" xmlns="http://www.w3.org/2000/svg">
<path d="M29.99 10.6826V11.0926L20.2 21.5026C19.91 21.9126 19.34 22.0426 19.18 21.4726C19.18 19.4526 19.14 17.4326 19.24 15.4226C12.52 15.8826 6.19 18.9526 1.61 23.8426C1.14 24.3426 0.68 25.4226 0 24.5426V24.4226C0.1 24.3526 0.1 24.0826 0 24.0126V23.6626C0.02 23.5826 0.159998 23.5626 0.169998 23.5026C0.229998 23.2726 0.250013 22.9226 0.310013 22.6626C1.62001 17.0926 4.55001 12.3126 9.57001 9.41264C12.5 7.72264 15.86 6.84264 19.24 6.59264V0.422642C19.32 -0.0473579 19.79 -0.127354 20.12 0.192646L30 10.6926L29.99 10.6826Z" fill="#ffd700"/>
</svg>
