<svg width="126" height="130" viewBox="0 0 126 130" fill="none" xmlns="http://www.w3.org/2000/svg">
<path d="M124.392 66.7338C124.392 100.641 96.9051 128.13 63.0002 128.13C29.0954 128.13 1.60889 100.641 1.60889 66.7338C1.60889 32.8262 29.0954 5.3374 63.0002 5.3374C96.9051 5.3374 124.392 32.8262 124.392 66.7338ZM76.4131 68.9695C84.9428 61.4179 88.2861 49.857 82.2751 39.5133C74.0187 25.3143 53.6261 24.594 44.5053 38.3061C37.5406 48.769 40.5411 61.0155 49.5873 68.9695C39.94 70.3854 30.9434 75.8206 25.5385 83.9236C24.2817 85.8115 18.2757 96.1403 22.528 96.821C25.464 97.288 26.7208 90.6505 27.9677 88.3403C36.855 71.9007 55.6331 71.8709 72.2104 72.9291C84.4857 73.7091 93.845 79.6113 99.1952 90.6555C99.9602 92.2403 100.596 96.2496 102.096 96.7117C107.422 98.3462 103.86 90.1487 102.837 88.0075C97.9731 77.8426 87.5856 70.5345 76.4181 68.9645L76.4131 68.9695Z" fill="white"/>
<path d="M63 68.741C72.9209 68.741 80.9633 60.6978 80.9633 50.7761C80.9633 40.8544 72.9209 32.8113 63 32.8113C53.0791 32.8113 45.0366 40.8544 45.0366 50.7761C45.0366 60.6978 53.0791 68.741 63 68.741Z" fill="white"/>
</svg>
