<svg width="31" height="31" viewBox="0 0 31 31" fill="none" xmlns="http://www.w3.org/2000/svg">
<path d="M31 15.5C31 24.0599 24.0625 31 15.5059 31C6.94929 31 0 24.0717 0 15.5C0 6.9283 6.93748 0 15.4941 0C24.0507 0 30.9882 6.94012 30.9882 15.5H31ZM14.4422 2.24638C7.11475 2.76659 1.54823 9.47025 2.29279 16.7769C2.58826 19.6026 3.80557 22.3219 5.70835 24.4146C5.9329 23.7998 6.09836 23.1732 6.35837 22.5702C9.79756 14.6251 21.2497 14.6487 24.6535 22.6175C24.9016 23.1968 25.0553 23.8234 25.2798 24.4146C27.0526 22.4519 28.2581 19.9573 28.6245 17.3207C29.7827 8.86728 22.9398 1.65523 14.4541 2.24638H14.4422ZM14.9268 18.574C11.3222 18.8459 8.30843 21.648 7.83568 25.2304C7.80023 25.455 7.7175 26.188 7.83568 26.3299C7.98933 26.5072 9.26573 27.2285 9.56119 27.3703C13.284 29.2384 17.7278 29.2384 21.4506 27.3703C21.687 27.2521 23.1289 26.4245 23.2116 26.2944C23.318 26.1171 23.0816 24.7811 23.0225 24.4855C22.207 20.8322 18.6615 18.3021 14.9386 18.574H14.9268Z" fill="white"/>
<path d="M21.4192 9.67818C21.4192 12.7403 18.9374 15.2232 15.8764 15.2232C12.8154 15.2232 10.3335 12.7403 10.3335 9.67818C10.3335 6.61602 12.8154 4.13318 15.8764 4.13318C18.9374 4.13318 21.4192 6.61602 21.4192 9.67818ZM19.1855 9.67818C19.1855 7.85744 17.7082 6.37956 15.8882 6.37956C14.0681 6.37956 12.5908 7.85744 12.5908 9.67818C12.5908 11.4989 14.0681 12.9768 15.8882 12.9768C17.7082 12.9768 19.1855 11.4989 19.1855 9.67818Z" fill="white"/>
</svg>
