<svg width="71" height="72" viewBox="0 0 71 72" fill="none" xmlns="http://www.w3.org/2000/svg">
<g clip-path="url(#clip0_1144_3789)">
<path d="M42.9283 46.4145C44.0797 46.1467 47.5413 46.2712 48.6816 46.6522C50.3901 47.2255 51.6826 49.1302 51.5898 50.9633C51.5378 51.9817 50.5832 53.2227 50.5869 53.5395C50.5869 54.0789 51.7272 55.135 51.5489 56.8398C51.1292 60.8455 46.4717 61.0982 43.4186 60.7323C41.9812 60.5588 41.7324 60.0006 41.6061 58.6277C41.3832 56.1798 41.3387 50.5748 41.6135 48.1835C41.7175 47.2821 41.9924 46.6371 42.9283 46.4183V46.4145ZM44.674 51.9931C50.015 52.8417 50.0075 48.606 44.674 49.4546V51.9931ZM44.674 57.6281C50.015 58.4768 50.0075 54.241 44.674 55.0897V57.6281Z" fill="#FAFAFA"/>
<path d="M33.5761 49.4546V51.9892H37.8771C39.3701 51.9892 39.3701 55.0897 37.8771 55.0897H33.5761V57.6243H37.8771C38.7425 57.6243 39.6153 59.3782 38.5605 60.291C37.8696 60.8869 32.8518 60.902 31.8341 60.6644C30.731 60.4079 30.601 59.6158 30.5119 58.6238C30.2927 56.1608 30.2444 50.5861 30.5193 48.1797C30.6604 46.9426 31.095 46.4937 32.3244 46.3466C33.3161 46.2297 37.2234 46.2071 38.033 46.4748C39.8158 47.067 38.9133 49.4508 37.8771 49.4508H33.5761V49.4546Z" fill="#FAFAFA"/>
<path d="M22.4744 49.4542V51.9888H26.7754C28.2685 51.9888 28.2685 55.0892 26.7754 55.0892H22.4744V59.457C22.4744 60.5621 19.9562 61.4787 19.4808 59.3966C19.1205 57.8163 19.2357 50.3519 19.4103 48.4546C19.4734 47.7493 19.4883 47.0855 20.1457 46.6668C20.8476 46.2142 26.0438 46.184 26.9314 46.482C28.7142 47.0742 27.8117 49.4579 26.7754 49.4579H22.4744V49.4542Z" fill="#FAFAFA"/>
<path d="M0 12.8227C1.28139 7.41019 5.75696 4.86045 11.1016 5.49788C10.4777 -1.83451 20.2793 -1.80811 19.7037 5.49788H31.3587C30.4302 -1.84205 40.6367 -1.82319 39.6821 5.49788H51.3372C50.7429 -1.88732 60.5446 -1.74776 59.9392 5.49788C65.3359 4.87176 70.2832 7.53843 70.9629 13.3244L71.0074 63.9307C70.6991 66.9293 69.1021 69.4451 66.5133 70.9199L63.5494 71.9948H7.49147C3.5396 71.1952 0.995397 68.604 0 64.67V12.8227ZM14.151 3.66478C13.865 4.69826 14.151 8.97171 14.151 10.4276C14.151 11.3215 16.6469 11.3215 16.6469 10.4276V3.66478C16.6469 2.94437 14.4555 2.56342 14.151 3.66478ZM36.5623 3.31023C36.1314 2.86893 34.902 2.87648 34.4749 3.31023C33.9363 3.85715 33.9363 10.2277 34.4749 10.7822C35.1286 11.4498 36.6254 11.2235 36.8371 10.0919C37.0191 9.1339 37.0711 3.83451 36.5623 3.31023ZM54.3865 3.66478C54.1005 4.69826 54.3865 8.97171 54.3865 10.4276C54.3865 11.3215 56.8824 11.3215 56.8824 10.4276V3.66478C56.8824 2.94437 54.6911 2.56342 54.3865 3.66478ZM3.05304 12.6832V40.719H67.9841V12.6832C67.9841 12.3248 67.0444 10.9331 66.7361 10.5672C64.7491 8.19849 62.7657 8.54173 59.9355 8.59453C60.4406 16.0099 50.8321 16.0061 51.3335 8.59453H39.6784C40.4658 16.0212 30.5639 16.0174 31.355 8.59453H19.6999C20.2013 16.0061 10.5928 16.0061 11.0979 8.59453C8.20459 7.96087 3.63988 9.31495 3.04933 12.6832H3.05304ZM67.9841 43.8194H3.05304V59.1782C3.05304 60.4342 6.13209 63.463 7.63261 63.2631C26.5266 63.1386 45.4651 63.512 64.3294 63.0745C65.4807 62.8218 67.9841 60.2381 67.9841 59.1782V43.8194ZM67.9804 64.3909C66.1976 65.6506 64.4853 66.2202 62.3088 66.3748C44.8708 67.6082 26.04 65.4168 8.45716 66.3748C7.53976 66.2428 6.5555 66.1183 5.67896 65.8166C4.72442 65.4885 4.0113 64.7756 3.05304 64.538C3.57303 66.6238 5.48211 68.653 7.63261 68.9019L64.1065 68.7699C66.0602 68.0118 67.5013 66.488 67.9804 64.3946V64.3909Z" fill="#FAFAFA"/>
<path d="M40.451 18.2427C44.3323 17.809 47.2813 21.6336 46.0779 25.379C45.8365 26.1258 44.9674 26.9367 44.9563 27.329C44.9191 28.6944 47.1922 29.5468 45.9999 33.1904C43.946 39.4704 34.1815 36.7095 35.9865 29.7844C36.1945 28.9848 37.0859 28.0343 37.1305 27.5779C37.1788 27.0612 36.0311 25.7298 35.8677 24.7378C35.3551 21.6826 37.3385 18.5973 40.4584 18.2465L40.451 18.2427ZM43.4037 23.6251C43.4037 22.3125 42.3563 21.2526 41.0675 21.2526C39.7787 21.2526 38.7313 22.3163 38.7313 23.6251C38.7313 24.9339 39.7787 25.9976 41.0675 25.9976C42.3563 25.9976 43.4037 24.9339 43.4037 23.6251ZM43.4037 31.3271C43.4037 30.0145 42.3563 28.9546 41.0675 28.9546C39.7787 28.9546 38.7313 30.0183 38.7313 31.3271C38.7313 32.6359 39.7787 33.6996 41.0675 33.6996C42.3563 33.6996 43.4037 32.6359 43.4037 31.3271Z" fill="#FAFAFA"/>
<path d="M30.2444 22.686C30.107 22.4936 27.1654 25.3413 26.4374 25.462C25.2266 25.6581 24.3352 24.3644 24.8366 23.2555C25.0223 22.8481 29.9325 19.0462 30.6047 18.6878C32.5435 17.6544 33.1415 18.5634 33.3086 20.5624C33.576 23.7798 33.706 31.8703 33.2715 34.9179C32.8369 37.9655 30.2444 36.3776 30.2444 35.7892V22.686Z" fill="#FAFAFA"/>
</g>
<defs>
<clipPath id="clip0_1144_3789">
<rect width="71" height="72" fill="white" transform="translate(0 -0.000976562)"/>
</clipPath>
</defs>
</svg>
