<svg width="88" height="91" viewBox="0 0 88 91" fill="none" xmlns="http://www.w3.org/2000/svg">
<path d="M27.7939 0C28.8025 0.254249 30.8196 1.61024 30.8196 2.75437V9.778H57.1804V2.75437C57.1804 1.70559 59.1019 0.296624 60.0256 0H68.9328C70.3342 0.508498 71.5551 0.858091 72.2345 2.29884C72.3301 2.50012 72.6698 3.34761 72.6698 3.46414V9.778H80.6003C83.9551 9.778 87.8832 13.8036 87.9894 17.1512V82.1966C87.7346 86.4765 84.6983 90.5868 80.25 90.9894H7.56955C3.22741 90.4385 0.36096 86.54 0 82.3661V17.1512C0.0636989 13.7824 4.07673 9.778 7.39969 9.778H15.3302V3.46414C15.3302 3.34761 15.6699 2.50012 15.7655 2.29884C16.4025 0.942841 17.5809 0.519092 18.8867 0H27.7939ZM26.3607 4.43877H20.1288V16.3461H26.3607V4.43877ZM68.041 4.43877H61.4482V16.3461H68.041V4.43877ZM83.5411 30.5629V17.3207C83.5411 17.0983 82.7873 15.6999 82.5644 15.4456C81.8955 14.6829 80.887 14.3545 79.889 14.3121C77.5852 14.2062 75.016 14.5558 72.6804 14.3863V16.9605C72.6804 18.6237 70.7695 20.2552 69.2619 20.6577C67.5527 21.1133 61.5225 21.198 59.8876 20.6577C58.9108 20.3399 57.1804 18.6979 57.1804 17.6703V14.3863H30.8196V17.6703C30.8196 18.7932 29.0148 20.3717 27.9744 20.6895C26.3926 21.1874 20.5429 21.1027 18.8761 20.6895C17.3049 20.3081 15.3196 18.6767 15.3196 16.9499V14.3757L7.08119 14.418C6.13633 14.7676 5.39317 15.2655 4.92605 16.1766C4.85173 16.3249 4.45892 17.2572 4.45892 17.3101V30.5523H83.5411V30.5629ZM83.5411 35.1923H4.45892V82.3767C4.45892 82.5886 4.84111 83.7327 4.9579 84.0081C5.52057 85.3112 6.64592 86.3917 8.11099 86.5506H79.7191C81.2798 86.4871 82.5644 85.2794 83.0952 83.881C83.212 83.5632 83.5411 82.4403 83.5411 82.1966V35.1923Z" fill="#F4F4F5"/>
<path d="M55.3333 77.9592C54.6327 78.6372 53.5816 78.6478 52.7217 78.2771L42.8271 73.2239L32.9963 78.33C31.3507 79.0822 29.6945 77.9169 29.7264 76.1477L31.6692 64.9925L23.6856 57.3121C22.539 55.6383 23.1229 54.0492 25.0658 53.5407C27.7624 52.8415 31.2339 52.725 34.0685 52.2165C34.7055 52.1 35.3637 52.0682 35.9583 51.7928L40.9799 41.697C41.999 40.2774 43.9419 40.3833 44.8443 41.877L49.9614 51.8669L60.7584 53.5301C62.5207 53.8374 63.2532 55.7336 62.1916 57.1638L54.1655 64.9819C54.5477 68.7215 55.4183 72.4505 56.0765 76.1583C56.0765 76.635 55.6625 77.6202 55.3227 77.9487L55.3333 77.9592ZM46.734 55.5641C46.2138 55.151 43.0925 47.9049 42.7528 48.1591C41.6275 50.2461 40.6826 53.1064 39.398 55.0344C38.7292 56.0408 38.3788 56.0514 37.2641 56.2845C35.0134 56.74 32.5504 56.846 30.2785 57.2273C31.4357 58.5198 32.6884 59.7381 33.9199 60.9669C34.61 61.6555 35.9795 62.4289 36.2449 63.4459C36.6802 65.0879 34.7905 71.8361 35.0877 72.1539C37.2747 71.3488 39.3343 69.6961 41.4364 68.7957C42.4343 68.3719 42.9864 68.2554 44.0374 68.6474C44.908 68.9652 50.471 72.3869 50.7683 72.1539L49.3881 64.3781C49.3775 63.7319 49.5898 63.234 49.9614 62.7361C51.3734 60.808 54.1443 59.2613 55.5775 57.2379C53.3056 56.8672 50.8426 56.7506 48.5919 56.2951C47.8806 56.1574 47.2967 56.0726 46.734 55.5747V55.5641Z" fill="#F4F4F5"/>
</svg>
