<svg width="74" height="91" viewBox="0 0 74 91" fill="none" xmlns="http://www.w3.org/2000/svg">
<g clip-path="url(#clip0_1658_3420)">
<path d="M67.2972 20.771L57.1556 24.5269C57.1066 32.7979 57.6063 39.9154 51.7467 46.4217C40.8407 58.5275 20.3907 52.8492 17.3531 36.8495C16.579 32.7486 17.3629 28.8546 16.9122 25.0198C16.8828 24.8029 16.9122 24.5861 16.7064 24.4283L1.74375 18.7008C-0.549155 17.2319 -0.235596 14.1858 2.1455 12.9535L35.5004 0.374607L36.9016 0C48.6013 3.94323 60.056 8.70469 71.6773 12.8944C72.5788 13.2493 73.1961 13.8802 73.5488 14.7773C74.0682 23.0679 73.6958 31.4966 73.7448 39.8365C73.1275 42.6855 69.1492 43.3559 67.7774 40.7829C67.6794 40.6055 67.2972 39.5901 67.2972 39.4816V20.771ZM61.3886 15.8321L36.9114 6.77251L12.5713 15.9208L37.0584 25.1184L59.86 16.5616L61.3886 15.8222V15.8321ZM50.5708 26.9126C46.083 28.5687 41.6442 30.4812 37.0878 31.8811L36.0393 31.7332L23.4087 26.9224V34.5427C23.4087 40.497 30.2875 46.1063 35.9119 46.5203C42.5261 47.0034 50.5708 41.3941 50.5708 34.3456V26.9224V26.9126Z" fill="#F4F4F5"/>
<path d="M23.3601 55.4813C29.3863 54.6631 32.6297 61.751 36.9019 64.7479L37.4899 64.5507C41.5367 61.2286 44.8585 54.4856 50.9337 55.5602C59.0667 56.9994 69.6395 64.7085 72.5693 72.6048C73.9803 76.3903 74.2449 83.9712 73.7941 88.0031C73.3434 92.0351 67.7581 92.1534 67.2976 87.6088C66.9252 83.9219 67.8855 79.5055 66.886 75.9368C65.1125 69.5882 58.1358 64.8268 52.2369 62.7566C51.4726 62.4904 49.8265 61.7905 49.1307 62.0073L41.3016 69.7755C34.0015 74.468 29.7881 66.266 25.0847 62.1552C24.34 61.7116 23.2229 62.2144 22.4194 62.4707C16.648 64.3043 9.60268 68.9967 7.41756 74.9017C5.93795 78.8844 7.02561 83.291 6.67286 87.4215C6.26131 92.2125 0.685834 91.9069 0.186099 88.1904C-0.127461 85.8541 -7.72555e-05 80.5701 0.156702 78.0957C0.862211 67.4589 10.514 59.9569 19.7444 56.615C20.7438 56.2502 22.341 55.6193 23.3405 55.4813H23.3601Z" fill="#F4F4F5"/>
</g>
<defs>
<clipPath id="clip0_1658_3420">
<rect width="74" height="91" fill="white"/>
</clipPath>
</defs>
</svg>
