<svg width="292" height="306" viewBox="0 0 292 306" fill="none" xmlns="http://www.w3.org/2000/svg">
<path d="M63.6416 152.815C61.8568 152.74 60.1676 153.623 59.2103 155.131L25.5651 208.137C24.6078 209.645 24.5278 211.549 25.3552 213.132L54.437 268.773C55.2644 270.356 56.8736 271.377 58.6584 271.452L121.385 274.087C123.17 274.162 124.859 273.279 125.817 271.771L159.462 218.765C160.419 217.257 160.499 215.353 159.672 213.77L130.59 158.129C129.763 156.546 128.153 155.524 126.369 155.45L63.6416 152.815Z" fill="black" fill-opacity="0.35"/>
<path d="M63.5368 155.312C62.7 155.277 61.9052 155.663 61.4148 156.333L61.3211 156.47L27.6761 209.477C27.1974 210.231 27.1574 211.183 27.5711 211.974L56.6528 267.615C57.0408 268.357 57.7721 268.853 58.5973 268.942L58.7635 268.955L121.49 271.589C122.327 271.624 123.121 271.239 123.612 270.569L123.706 270.431L157.351 217.426C157.83 216.672 157.87 215.719 157.456 214.928L128.375 159.287C127.987 158.545 127.255 158.05 126.43 157.96L126.264 157.948L63.5368 155.312Z" stroke="url(#paint0_linear_1739_93)" stroke-opacity="0.8" stroke-width="5"/>
<path d="M67.7685 31.8772C65.9838 31.8023 64.2946 32.6852 63.3373 34.1933L29.692 87.1991C28.7347 88.7073 28.6547 90.6116 29.4822 92.1947L58.5639 147.835C59.3914 149.418 61.0006 150.44 62.7853 150.515L125.512 153.15C127.297 153.225 128.986 152.342 129.944 150.834L163.589 97.8277C164.546 96.3196 164.626 94.4153 163.799 92.8321L134.717 37.1915C133.889 35.6084 132.28 34.587 130.496 34.512L67.7685 31.8772Z" fill="black" fill-opacity="0.35"/>
<path d="M67.6637 34.3749C66.8269 34.3398 66.0322 34.7259 65.5417 35.3959L65.4481 35.533L31.803 88.5392C31.3244 89.2932 31.2844 90.2454 31.6981 91.037L60.7798 146.677C61.1677 147.419 61.899 147.915 62.7242 148.005L62.8905 148.017L125.617 150.651C126.454 150.687 127.248 150.301 127.739 149.632L127.833 149.493L161.478 96.4881C161.957 95.7341 161.997 94.7818 161.583 93.9903L132.502 38.3498C132.114 37.6078 131.382 37.1124 130.557 37.0224L130.391 37.0101L67.6637 34.3749Z" stroke="url(#paint1_linear_1739_93)" stroke-opacity="0.8" stroke-width="5"/>
<path d="M170.017 96.472C168.232 96.397 166.543 97.2799 165.585 98.7881L131.94 151.794C130.983 153.302 130.903 155.206 131.73 156.789L160.812 212.43C161.639 214.013 163.249 215.035 165.033 215.11L227.76 217.744C229.545 217.819 231.234 216.936 232.192 215.428L265.837 162.422C266.794 160.914 266.874 159.01 266.047 157.427L236.965 101.786C236.138 100.203 234.528 99.1817 232.744 99.1068L170.017 96.472Z" fill="black" fill-opacity="0.35"/>
<path d="M169.912 98.9697C169.075 98.9345 168.28 99.3206 167.79 99.9906L167.696 100.128L134.051 153.134C133.572 153.888 133.532 154.84 133.946 155.632L163.028 211.272C163.416 212.014 164.147 212.51 164.972 212.6L165.139 212.612L227.865 215.246C228.702 215.281 229.496 214.896 229.987 214.227L230.081 214.088L263.726 161.083C264.205 160.329 264.245 159.377 263.831 158.585L234.75 102.945C234.362 102.203 233.63 101.707 232.805 101.617L232.639 101.605L169.912 98.9697Z" stroke="url(#paint2_linear_1739_93)" stroke-opacity="0.8" stroke-width="5"/>
<defs>
<linearGradient id="paint0_linear_1739_93" x1="100.102" y1="132.129" x2="111.217" y2="220.056" gradientUnits="userSpaceOnUse">
<stop stop-color="#FF00EE"/>
<stop offset="1" stop-color="#B916F5"/>
</linearGradient>
<linearGradient id="paint1_linear_1739_93" x1="104.229" y1="11.1918" x2="115.344" y2="99.1183" gradientUnits="userSpaceOnUse">
<stop stop-color="#FF00EE"/>
<stop offset="1" stop-color="#B916F5"/>
</linearGradient>
<linearGradient id="paint2_linear_1739_93" x1="206.477" y1="75.7865" x2="217.592" y2="163.713" gradientUnits="userSpaceOnUse">
<stop stop-color="#FF00EE"/>
<stop offset="1" stop-color="#B916F5"/>
</linearGradient>
</defs>
</svg>
