<svg width="636" height="668" viewBox="0 0 636 668" fill="none" xmlns="http://www.w3.org/2000/svg">
<path d="M138.04 338.187C136.367 338.117 134.777 338.888 133.796 340.228L133.609 340.503L59.6873 456.962C58.73 458.47 58.65 460.375 59.4774 461.958L123.373 584.206C124.149 585.69 125.611 586.68 127.262 586.86L127.594 586.886L265.411 592.674C267.084 592.744 268.674 591.973 269.655 590.633L269.842 590.358L343.765 473.899C344.722 472.391 344.802 470.487 343.975 468.904L280.079 346.656C279.303 345.171 277.84 344.181 276.19 344.001L275.858 343.976L138.04 338.187Z" fill="black" fill-opacity="0.35" stroke="url(#paint0_linear_1739_91)" stroke-width="10"/>
<path d="M147.038 74.4822C145.365 74.412 143.775 75.1833 142.794 76.5227L142.607 76.7982L68.6853 193.257C67.728 194.765 67.648 196.67 68.4754 198.253L132.371 320.501C133.147 321.985 134.609 322.975 136.26 323.155L136.592 323.18L274.409 328.969C276.082 329.039 277.672 328.268 278.653 326.928L278.84 326.653L352.763 210.194C353.72 208.686 353.8 206.782 352.973 205.199L289.077 82.9505C288.301 81.4664 286.839 80.4754 285.188 80.2957L284.856 80.2711L147.038 74.4822Z" fill="black" fill-opacity="0.35" stroke="url(#paint1_linear_1739_91)" stroke-width="10"/>
<path d="M369.99 215.331C368.317 215.261 366.727 216.032 365.746 217.371L365.559 217.647L291.637 334.106C290.68 335.614 290.6 337.518 291.428 339.101L355.323 461.35C356.099 462.834 357.561 463.824 359.212 464.004L359.545 464.029L497.361 469.818C499.034 469.888 500.624 469.116 501.605 467.777L501.792 467.501L575.715 351.043C576.672 349.535 576.752 347.63 575.925 346.047L512.029 223.799C511.253 222.315 509.791 221.324 508.14 221.144L507.808 221.12L369.99 215.331Z" fill="black" fill-opacity="0.35" stroke="url(#paint2_linear_1739_91)" stroke-width="10"/>
<defs>
<linearGradient id="paint0_linear_1739_91" x1="218.272" y1="288.109" x2="242.509" y2="479.833" gradientUnits="userSpaceOnUse">
<stop stop-color="#FF00EE"/>
<stop offset="1" stop-color="#B916F5"/>
</linearGradient>
<linearGradient id="paint1_linear_1739_91" x1="227.27" y1="24.4038" x2="251.507" y2="216.128" gradientUnits="userSpaceOnUse">
<stop stop-color="#FF00EE"/>
<stop offset="1" stop-color="#B916F5"/>
</linearGradient>
<linearGradient id="paint2_linear_1739_91" x1="450.223" y1="165.252" x2="474.459" y2="356.976" gradientUnits="userSpaceOnUse">
<stop stop-color="#FF00EE"/>
<stop offset="1" stop-color="#B916F5"/>
</linearGradient>
</defs>
</svg>
