<svg width="86" height="91" viewBox="0 0 86 91" fill="none" xmlns="http://www.w3.org/2000/svg">
<g clip-path="url(#clip0_1658_3448)">
<path d="M74.2177 47.6255C75.229 47.6255 76.0487 46.8073 76.0487 45.7981C76.0487 44.7889 75.229 43.9707 74.2177 43.9707C73.2065 43.9707 72.3867 44.7889 72.3867 45.7981C72.3867 46.8073 73.2065 47.6255 74.2177 47.6255Z" fill="#F4F4F5"/>
<path d="M55.0441 0C56.7423 0.463948 58.1938 0.738529 59.7781 1.57174C70.451 7.16752 69.6162 22.8755 58.4215 27.1646V35.866C60.9355 33.7072 63.8196 33.3948 66.4949 35.5157C67.2254 36.0932 69.341 38.1573 69.8723 38.8769C71.3808 40.9031 69.341 42.9483 67.3867 41.547C65.8308 40.4392 63.5729 36.3015 61.2771 38.2804C58.4784 40.6854 63.848 42.9767 64.0947 44.6715C64.3414 46.3664 62.7286 47.512 61.2676 46.6031C59.6073 45.5615 57.5676 42.2476 55.8789 41.3387C54.1902 40.4297 52.1885 41.5754 52.5964 43.5543C52.881 44.9556 57.0553 48.0233 58.061 49.453C59.4176 51.3751 57.3969 53.4202 55.5659 52.1231C53.3174 50.5324 50.8413 46.9913 48.5644 45.0976C48.1755 44.7757 47.6347 44.3023 47.1319 44.2265C45.1586 43.9046 43.8968 45.8929 45.0258 47.5783C46.6101 49.9454 50.4618 52.4829 52.2928 54.8689C53.8961 56.9614 51.8469 59.0823 49.8926 57.6242L31.8672 39.606C29.9414 37.4283 26.7442 39.8143 28.414 42.1719L50.2531 64.0058C51.79 65.4924 51.6003 67.85 49.3708 68.4654C47.6537 68.9388 43.9537 68.579 41.9804 68.5506C40.5763 68.5317 38.1856 67.7932 37.4456 69.6868C36.459 72.1959 38.66 74.4873 41.1266 74.5535C48.6593 75.0364 56.5335 76.9869 64.0093 77.413C65.8688 77.5171 67.8516 77.4887 69.4833 76.4945C72.7943 72.7735 77.4145 69.3176 80.5263 65.5208C83.638 61.724 82.4237 57.4253 79.7199 53.8937C78.904 52.8332 77.0635 51.839 78.4771 50.2105C80.365 48.0328 83.4293 52.5018 84.2547 53.9789C87.0438 58.9781 86.4651 64.3467 82.7462 68.6358C80.2606 71.4953 75.4127 76.4661 72.5287 78.8332C68.3734 82.2513 63.3073 80.992 58.4215 80.4334C58.8389 85.5368 55.3761 89.8733 50.4334 90.9053H31.4403C30.1121 89.9774 29.9414 88.3015 31.4403 87.4304C36.9997 86.9949 42.8912 87.7334 48.4126 87.3547C52.8715 87.0517 55.1674 84.3722 54.712 79.8937L39.6087 78.0379C38.1192 77.697 36.6961 76.9869 35.5956 75.9264C35.3869 75.7276 34.6469 74.5725 34.5521 74.5725H3.55792V81.5885C3.55792 82.4217 4.22201 84.1544 4.72482 84.8645C7.41914 88.6519 12.7414 86.9097 16.6121 87.3547C18.5 87.5725 18.5949 90.2425 16.8777 90.9053C14.079 90.6591 10.7301 91.2367 7.99785 90.9053C4.05124 90.4224 0.303864 86.4173 0.00976562 82.4596V8.77713C0.190019 4.58267 4.03227 0.492352 8.1781 0H55.0441ZM63.6393 14.1078C63.6393 8.30371 58.9338 3.59796 53.1277 3.59796C47.3216 3.59796 42.6161 8.30371 42.6161 14.1078C42.6161 19.9119 47.3216 24.6176 53.1277 24.6176C58.9338 24.6176 63.6393 19.9119 63.6393 14.1078ZM43.3276 3.73052H8.26349C6.07198 3.73052 3.55792 7.2338 3.55792 9.32629V71.0219H33.5654C33.3662 67.386 36.3167 64.6875 39.8648 64.6307C40.1969 64.6307 40.5479 64.8201 40.9274 64.8201C42.6161 64.8012 44.3142 64.7917 45.9934 64.9053L25.5014 44.3875C21.4884 38.5171 28.4519 32.0503 34.0967 36.6803C35.1403 37.5324 40.9463 43.8762 41.4586 43.8762C42.3884 41.7079 44.8076 40.3445 47.1509 40.496C47.9857 40.5528 48.5644 40.9126 49.3519 41.0262C50.0729 38.7917 52.3592 37.2484 54.6931 37.3052V28.2535H51.2303C49.9685 28.2535 46.7903 26.8995 45.6519 26.1988C37.6259 21.2374 36.6961 10.311 43.3276 3.75892V3.73052Z" fill="#F4F4F5"/>
<path d="M24.8653 90.8957H23.6225C21.7536 90.0625 22.0287 87.3262 24.2392 87.3262C26.4496 87.3262 26.7343 90.053 24.8558 90.8957H24.8653Z" fill="#F4F4F5"/>
<path d="M23.4994 82.3176C22.4464 81.3897 22.8923 79.5339 24.2489 79.1836C27.2089 79.4961 31.1555 78.7291 33.9921 79.1836C35.88 79.4866 35.918 82.3271 33.9921 82.7153C31.0132 82.4881 27.503 83.0562 24.5904 82.7342C24.2584 82.6964 23.7366 82.5354 23.4994 82.3176Z" fill="#F4F4F5"/>
<path d="M12.0302 36.7845C12.7037 36.633 17.6655 36.633 18.3485 36.7845C20.189 37.2011 20.2175 40.0606 17.988 40.4298C16.9539 40.6003 13.254 40.6003 12.2484 40.3919C10.1517 39.9564 10.2845 37.1727 12.0302 36.7845Z" fill="#F4F4F5"/>
<path d="M27.2939 21.5216C28.5841 21.2281 29.5138 22.1086 29.6561 23.349C29.7795 24.3905 29.8079 28.0358 29.6182 28.9921C29.2103 31.0278 26.2029 31.0088 25.9277 28.6796C25.7949 27.6002 25.7854 24.0591 25.9752 23.0365C26.089 22.4211 26.6772 21.6636 27.3034 21.5216H27.2939Z" fill="#F4F4F5"/>
<path d="M37.9482 26.1326C39.6748 25.735 40.9176 27.2499 40.1113 28.8216C39.9595 29.1057 36.2311 32.8646 35.8611 33.0918C34.0775 34.247 32.1516 32.448 33.1288 30.7153C33.3565 30.3082 36.7908 26.8901 37.2841 26.5208C37.5023 26.3599 37.6446 26.1894 37.9482 26.1232V26.1326Z" fill="#F4F4F5"/>
<path d="M20.3779 43.7058C22.0192 43.3366 23.2525 44.9462 22.4176 46.4611C22.1425 46.9629 18.8126 50.3242 18.2908 50.6745C16.5357 51.8486 14.7047 50.2579 15.4162 48.5158C15.5301 48.2317 19.268 44.4444 19.7138 44.113C19.932 43.952 20.0743 43.7816 20.3779 43.7058Z" fill="#F4F4F5"/>
<path d="M16.2895 25.9622C16.8777 25.8296 17.4185 25.877 17.9308 26.1989C18.3292 26.445 22.0292 30.1472 22.2758 30.5448C23.272 32.1355 21.4125 34.0481 19.6479 32.9971C19.1356 32.6941 16.0334 29.5885 15.6254 29.0299C14.876 28.0073 14.9329 26.2746 16.28 25.9622H16.2895Z" fill="#F4F4F5"/>
<path d="M57.6533 9.44922C59.4273 9.04208 60.5468 10.5191 59.8163 12.1382C57.3307 14.439 54.6933 16.6262 52.0369 18.7376C51.4013 18.9081 50.8226 18.8986 50.2629 18.5388C49.7031 18.179 47.4737 15.7267 46.9709 15.0829C46.1265 14.0129 45.6711 12.6684 47.1132 11.8542C49.1719 10.6896 50.0731 13.6342 51.5531 14.3538L57.6628 9.44922H57.6533Z" fill="#F4F4F5"/>
</g>
<defs>
<clipPath id="clip0_1658_3448">
<rect width="86" height="91" fill="white"/>
</clipPath>
</defs>
</svg>
