<svg width="417" height="795" viewBox="0 0 417 795" fill="none" xmlns="http://www.w3.org/2000/svg">
<path d="M297.594 787.975C298.999 788.746 300.682 788.794 302.122 788.119L302.406 787.975L548.75 652.715C550.349 651.837 551.344 650.157 551.344 648.332V378.668C551.344 376.957 550.47 375.374 549.043 374.459L548.75 374.285L302.406 239.025C301.001 238.254 299.318 238.206 297.878 238.881L297.594 239.025L51.25 374.285C49.6506 375.163 48.6562 376.843 48.6562 378.668V648.332C48.6562 650.043 49.5301 651.626 50.957 652.541L51.25 652.715L297.594 787.975Z" fill="black" fill-opacity="0.35" stroke="url(#paint0_linear_1644_163)" stroke-width="10"/>
<path d="M152.093 286.973C153.498 287.745 155.183 287.793 156.623 287.117L156.907 286.973L280.708 218.966C282.307 218.087 283.301 216.408 283.301 214.584V79.416C283.301 77.7058 282.428 76.123 281.001 75.208L280.708 75.0342L156.907 7.02734C155.502 6.25516 153.817 6.20699 152.377 6.88281L152.093 7.02734L28.292 75.0342C26.693 75.9125 25.6993 77.5917 25.6992 79.416V214.584C25.6993 216.294 26.5725 217.877 27.999 218.792L28.292 218.966L152.093 286.973Z" fill="black" fill-opacity="0.35" stroke="url(#paint1_linear_1644_163)" stroke-width="10"/>
<path d="M438.829 286.973C440.235 287.745 441.919 287.793 443.359 287.117L443.644 286.973L567.444 218.966C569.043 218.087 570.037 216.408 570.037 214.584V79.416C570.037 77.7058 569.164 76.123 567.737 75.208L567.444 75.0342L443.644 7.02734C442.238 6.25516 440.554 6.20699 439.113 6.88281L438.829 7.02734L315.028 75.0342C313.429 75.9125 312.436 77.5917 312.436 79.416V214.584C312.436 216.294 313.309 217.877 314.735 218.792L315.028 218.966L438.829 286.973Z" fill="black" fill-opacity="0.35" stroke="url(#paint2_linear_1644_163)" stroke-width="10"/>
<defs>
<linearGradient id="paint0_linear_1644_163" x1="108.319" y1="795" x2="230.314" y2="449.886" gradientUnits="userSpaceOnUse">
<stop stop-color="#FF00EE"/>
<stop offset="1" stop-color="#B916F5"/>
</linearGradient>
<linearGradient id="paint1_linear_1644_163" x1="54.4505" y1="294" x2="118.18" y2="113.799" gradientUnits="userSpaceOnUse">
<stop stop-color="#FF00EE"/>
<stop offset="1" stop-color="#B916F5"/>
</linearGradient>
<linearGradient id="paint2_linear_1644_163" x1="341.187" y1="294" x2="404.916" y2="113.799" gradientUnits="userSpaceOnUse">
<stop stop-color="#FF00EE"/>
<stop offset="1" stop-color="#B916F5"/>
</linearGradient>
</defs>
</svg>
