<svg width="79" height="91" viewBox="0 0 79 91" fill="none" xmlns="http://www.w3.org/2000/svg">
<g clip-path="url(#clip0_1658_3433)">
<path d="M39.8559 0L78.7637 10.5704L78.9437 11.1013C78.5173 25.1034 80.3746 39.39 76.1389 52.9277C74.9165 56.8335 73.3624 60.4644 71.0977 63.7635C70.9935 63.9152 70.984 64.6073 70.7945 64.9959C70.2828 66.0482 69.2784 67.4797 68.5961 68.4846C61.5935 78.8464 51.1795 86.7624 39.42 91C22.0793 84.6578 8.37721 70.5987 2.8528 52.9277C-1.37342 39.3806 0.474367 25.1034 0.0574303 11.1013L0.237471 10.5704L38.9747 0H39.8654H39.8559ZM72.6991 15.3104L39.5811 6.38962L6.302 15.3104C6.58628 26.3074 5.25019 37.5983 7.96975 48.3488C11.5232 62.4173 21.1127 74.7415 33.8198 81.681C35.0422 82.3446 37.7523 83.8425 38.9747 84.1743C39.4106 84.2881 39.619 84.2881 40.0549 84.1743C41.2773 83.8425 43.9779 82.3541 45.2098 81.681C58.9876 74.1822 68.9278 60.4455 71.7989 45.0118C73.5899 35.3894 72.3864 25.0845 72.7181 15.3199L72.6991 15.3104Z" fill="#F4F4F5"/>
<path d="M59.7547 27.9096C59.2146 28.3931 59.9726 28.8671 60.4654 28.4405C60.6265 28.5733 60.7307 28.7155 60.816 28.7913C60.3801 29.0852 60.6738 29.2558 60.9581 29.4454C61.7446 29.9763 61.9436 30.7442 63.1281 31.095C63.0049 31.7112 62.3132 31.9861 62.4174 32.6971C62.3605 32.754 62.3037 32.8204 62.2373 32.8773C62.0478 33.0195 61.5646 32.8773 61.7067 33.5883C61.6025 33.6831 61.5267 33.8063 61.3561 33.939C61.1855 34.0717 60.6833 33.939 60.8254 34.65L36.7284 63.593L15.1709 45.4005C15.8437 44.9076 18.8475 40.7932 19.3213 40.8785L36.0177 54.8807L56.9119 29.8436C57.9637 29.9289 57.4805 29.7678 57.6226 29.3127C57.6795 29.1326 57.7553 29.0567 57.8027 28.9619C58.3238 28.8577 58.9303 28.2604 59.044 27.72C59.0819 27.6916 58.9113 27.2271 59.3093 27.3693C59.5083 27.4356 59.641 27.8148 59.7547 27.9002V27.9096Z" fill="#F4F4F5"/>
<path d="M63.4878 31.1045C63.3741 31.0855 63.2225 31.1329 63.1372 31.1045C61.9528 30.7537 61.7632 29.9763 60.9673 29.4549C60.683 29.2653 60.3893 29.0947 60.8251 28.8008C61.3368 29.2179 63.3931 30.5641 63.4878 31.1139V31.1045Z" fill="#F4F4F5"/>
<path d="M63.488 31.1042C63.6017 31.7394 62.8247 32.3366 62.4267 32.7064C62.3224 31.9954 63.0142 31.7299 63.1374 31.1042C63.2321 31.1327 63.3837 31.0853 63.488 31.1042Z" fill="#F4F4F5"/>
<path d="M59.0441 27.7295C58.9304 28.2699 58.3239 28.8671 57.8027 28.9714C58.2197 27.976 58.5324 28.194 59.0441 27.7295Z" fill="#F4F4F5"/>
<path d="M60.4653 28.4406C59.9725 28.8672 59.2145 28.3932 59.7546 27.9097C60.0009 28.0993 60.1999 28.232 60.4653 28.4406Z" fill="#F4F4F5"/>
<path d="M57.6228 29.3223C57.4807 29.7868 57.9639 29.948 56.9121 29.8532C57.0542 29.5498 57.2722 29.3317 57.6228 29.3223Z" fill="#F4F4F5"/>
<path d="M62.2469 32.8774C62.2658 33.3135 61.9531 33.3799 61.7162 33.5885C61.5741 32.8869 62.0573 33.0196 62.2469 32.8774Z" fill="#F4F4F5"/>
<path d="M61.3564 33.9487C61.3564 34.2995 61.129 34.5175 60.8258 34.6597C60.6837 33.9487 61.1859 34.0909 61.3564 33.9487Z" fill="#F4F4F5"/>
</g>
<defs>
<clipPath id="clip0_1658_3433">
<rect width="79" height="91" fill="white"/>
</clipPath>
</defs>
</svg>
